<?xml version="1.0" encoding="UTF-8"?>
<svg id="Layer_1" xmlns="http://www.w3.org/2000/svg" version="1.1" viewBox="0 0 500 500">
  <!-- Generator: Adobe Illustrator 30.2.1, SVG Export Plug-In . SVG Version: 2.1.1 Build 1)  -->
  <defs>
    <style>
      .st0 {
        fill: #af862e;
      }

      .st1 {
        fill: #053a3a;
      }
    </style>
  </defs>
  <rect class="st1" width="500" height="500"/>
  <g>
    <path class="st0" d="M147,210.3c2.2-2.2,2.5-7.5,2.5-10.6,0-16.1.1-32.3.4-48.6,0-1,.8-1.8,1.8-1.7h51.4c3.1,0,5.7-1,7.8-2.9,4.8-4.4,9.4-8.9,13.9-13.7,7.7-8,15.5-15.6,23.3-22.8,1.3-1.2,2.6-1.2,3.9,0,12.9,12.9,25.1,25,36.4,36.5,1.7,1.7,3.9,2.6,6.7,2.6,17.9.1,35.5.1,53,.1s1.9.8,1.9,1.9c.1,17.8.1,35.3,0,52.7,0,5.6,4.5,8.8,8,12.2,11.2,11.2,22.2,21.9,32.9,32.1.6.6.6,1.6,0,2.2-11.6,11.9-23.2,23.4-34.7,34.5-2.8,2.7-5.7,5.7-5.7,9.7-.1,17-.4,34.9-.6,53.3,0,1.1-.9,2-2.1,2-16.8,0-34.1,0-51.7,0-4.5,0-6.3,1.7-9.3,4.6-11.7,11.6-23.6,23.5-35.5,35.5-1,1-2,1-3,0-12.5-12.6-24.8-24.8-37-36.7-4.8-4.7-12.6-4.2-19-3.9-13.8.5-27.5.5-41.3.5s-.8-.3-.9-.7c-.4-2.2-.5-4.2-.5-6.1,0-16.6-.1-33.2-.1-49.8s-.4-2.2-1.3-3l-38.8-38.7c-.9-.9-.9-2.3,0-3.2,12-12,24.5-24.6,37.5-37.9M211,164c-14.7.1-29.4,0-44-.4-1.5,0-2.7,1.2-2.7,2.6,0,13.6,0,28.3-.1,44.2,0,2.5-.7,4.3-2,5.7-10.4,10.8-20.9,21.3-31.5,31.6-1.1,1.1-1.2,2.9,0,4,10,9.9,19.9,19.7,29.7,29.6,2.5,2.5,3.8,5.1,3.9,7.5.3,14.9.2,29.8-.2,44.8,0,.9.7,1.7,1.6,1.7,13.8,0,27.5,0,41.1.2,5.2,0,9.6,1.9,13.3,5.6,9.3,9.3,19,18.8,28.9,28.6.4.4,1.2.4,1.7,0,10.6-10.1,20.7-20.1,30.2-29.8,3.1-3.3,6.9-4.8,11.4-4.8,16,.3,30.2.3,42.6.1.6,0,.9-.3.9-.9-.1-12.9-.1-25.9,0-38.8,0-6.5-.4-10.2,3.3-14,10-10.3,20.2-20.3,30.6-30,.9-.8.9-2.3,0-3.2-10.1-10.5-20.8-21.6-32-32-1.3-1.2-1.9-3.3-1.9-6.2,0-13.1,0-28,0-44.7,0-1.1-.9-1.9-2-1.9-14.5.6-29.6.7-45.4.1-2.5,0-4.7-1.6-6.5-3.3-10.1-10-20.3-20.1-30.5-30.2-.9-.9-2.2-.8-3.1,0-10,10.2-20.4,20.5-31,31.1-1.7,1.7-3.8,2.6-6.2,2.6h.1Z"/>
    <path class="st0" d="M250.9,257.6c6.1-7.1,13.8-13.2,23.2-18.1,15.7-8.3,34.5-16.8,52.4-21.1.6-.1,1.1,0,1.6.4,2.2,1.8,3.6,5.8,1,8.1-1.3,1.1-2.6,2.2-4.1,3-23.6,14-47.6,27.8-72,41.3-2.2,1.3-4.4,1.3-6.6,0-23.1-13.3-44.8-25.8-64.9-37.6-3.6-2.1-7.3-4.5-10.9-7-3-2.1-.4-5.7,1.3-7.7.4-.5,1-.7,1.7-.4,15.7,4.5,30.9,10.4,45.9,17.5,11.2,5.4,21.6,12.7,30.3,21.6.4.4,1,.4,1.3,0h-.1Z"/>
    <path class="st0" d="M252.5,277.7l81.6-47.3c2.8-1.6,4.5-.9,5.4,2.2.1.5.2.7.2.7.8,3.2,0,5.6-2.7,7.1-28.4,16.5-56.8,32.9-85.1,49.2-1.2.7-2.7.7-3.9,0l-85.3-49.2c-2.8-1.6-3.7-3.9-2.8-6.9,0-.2.1-.5.2-.9.9-3.1,2.8-3.9,5.5-2.2l81.6,47.2c1.6,1,3.6,1,5.4,0h0Z"/>
    <path class="st0" d="M288.3,286.6c-3.6,1.6-6.1,4.2-7.4,7.7-.2.5-.2,1,0,1.6,2.5,9.6,12,14.1,19.8,18.8,1.8,1,2.2,2.5,1,4.3l-.5.9c-1.1,1.7-2.5,2.1-4.3,1-12.3-7.3-24.6-14.5-36.7-21.7-2.4-1.4-4.7-2.5-7.1-3.3-.7-.2-.7-1.2-.1-1.6l35.1-20.8c1.3-.7,2.8-.7,4,0l24.4,15.5c1.6,1,1.8,2.2.7,3.7l-1.1,1.5c-1,1.4-2.3,1.6-3.7.4-10.1-8-18.1-10.7-23.9-8.1h0Z"/>
    <path class="st0" d="M217.4,291.8c-7.1-12.8-22.2-3.3-29.7,2.8-1.9,1.5-3.3,1.2-4.5-1l-.3-.6c-1-2.2-.6-3.9,1.4-5.1l22.2-13.8c1.8-1.2,4.2-1.2,6,0l33.3,19.6c1,.6.9,2.1-.1,2.6-1.6.7-3.1,1.5-4.5,2.3-13.1,7.7-26,15.2-38.8,22.8-.9.5-2.1.3-2.7-.6l-1.7-2.5c-.7-.9-.6-1.8.2-2.6,1-1,2-1.8,3.2-2.5,6.2-3.5,21.2-11.9,16-21.3h0Z"/>
  </g>
</svg>