<?xml version="1.0" encoding="UTF-8"?>
<svg id="Layer_1" xmlns="http://www.w3.org/2000/svg" version="1.1" viewBox="0 0 500 500">
  <!-- Generator: Adobe Illustrator 30.2.1, SVG Export Plug-In . SVG Version: 2.1.1 Build 1)  -->
  <defs>
    <style>
      .st0 {
        fill: #af862e;
      }

      .st1 {
        fill: #053a3a;
      }
    </style>
  </defs>
  <rect class="st1" width="500" height="500"/>
  <g>
    <path class="st0" d="M111.4,196.6c2.9-3,3.4-10.1,3.4-14.2,0-21.7.2-43.5.6-65.4,0-1.3,1.1-2.4,2.4-2.3,24.6,0,47.7,0,69.1,0,4.2,0,7.7-1.3,10.5-3.9,6.5-5.9,12.7-12,18.7-18.4,10.3-10.8,20.8-21,31.4-30.6,1.8-1.6,3.5-1.6,5.2.1,17.4,17.3,33.7,33.6,49,49.1,2.3,2.3,5.3,3.5,9,3.5,24.1.2,47.8.2,71.3.2,1.4,0,2.5,1.1,2.5,2.5.2,23.9.2,47.5,0,70.9,0,7.5,6,11.8,10.7,16.4,15.1,15,29.8,29.4,44.2,43.2.8.8.8,2.1,0,2.9-15.6,16-31.2,31.5-46.6,46.4-3.7,3.6-7.6,7.6-7.6,13-.2,22.9-.5,46.9-.8,71.7,0,1.5-1.2,2.7-2.8,2.7-22.6-.1-45.8-.1-69.5,0-6.1,0-8.5,2.3-12.5,6.2-15.8,15.6-31.7,31.6-47.7,47.8-1.4,1.4-2.7,1.4-4.1,0-16.8-17-33.4-33.4-49.7-49.3-6.5-6.3-16.9-5.6-25.5-5.2-18.5.7-37,.7-55.6.7s-1.1-.4-1.2-1c-.5-2.9-.7-5.6-.7-8.2,0-22.3-.2-44.7-.2-67,0-1.6-.6-3-1.7-4.1l-52.2-52.1c-1.2-1.2-1.2-3.1,0-4.3,16.2-16.1,33-33.1,50.4-51M197.5,134.3c-19.8.2-39.5,0-59.2-.5-2,0-3.6,1.6-3.6,3.5,0,18.3,0,38.1-.2,59.4,0,3.3-.9,5.8-2.7,7.7-14,14.5-28.1,28.7-42.4,42.5-1.5,1.5-1.6,3.9,0,5.4,13.4,13.3,26.7,26.5,39.9,39.8,3.4,3.4,5.1,6.8,5.2,10.1.4,20,.3,40.1-.3,60.2,0,1.2,1,2.3,2.2,2.3,18.6,0,37,.1,55.3.3,7,0,12.9,2.6,17.9,7.5,12.5,12.5,25.5,25.3,38.8,38.5.6.6,1.6.6,2.3,0,14.3-13.6,27.8-27,40.6-40.1,4.2-4.4,9.3-6.5,15.3-6.4,21.5.4,40.6.4,57.3.2.8,0,1.2-.4,1.2-1.2-.2-17.4-.2-34.8,0-52.2.1-8.7-.5-13.7,4.5-18.8,13.5-13.8,27.2-27.3,41.1-40.3,1.2-1.1,1.2-3.1,0-4.3-13.6-14.1-28-29-43.1-43-1.7-1.6-2.5-4.4-2.5-8.3.1-17.6,0-37.7-.1-60.1,0-1.5-1.2-2.6-2.7-2.6-19.5.8-39.8.9-61,.2-3.4-.1-6.3-2.1-8.7-4.4-13.6-13.4-27.3-27-41-40.6-1.2-1.2-3-1.1-4.2,0-13.5,13.7-27.4,27.6-41.7,41.8-2.3,2.3-5.1,3.5-8.4,3.5h0Z"/>
    <path class="st0" d="M251.2,260.2c8.2-9.6,18.6-17.7,31.2-24.4,21.1-11.2,46.4-22.6,70.5-28.4.8-.2,1.5,0,2.1.5,2.9,2.4,4.8,7.8,1.4,10.9-1.7,1.5-3.5,2.9-5.5,4.1-31.7,18.8-64,37.4-96.8,55.6-3,1.7-5.9,1.7-8.9,0-31.1-17.9-60.2-34.7-87.3-50.6-4.9-2.8-9.8-6-14.7-9.4-4-2.8-.6-7.7,1.8-10.3.6-.7,1.4-.9,2.3-.6,21.1,6.1,41.6,14,61.7,23.6,15,7.2,29.1,17.1,40.7,29.1.5.5,1.3.5,1.7,0h0Z"/>
    <path class="st0" d="M253.4,287.2l109.8-63.6c3.7-2.2,6.1-1.2,7.2,3,.2.7.3,1,.3,1,1.1,4.3-.1,7.5-3.6,9.5-38.2,22.2-76.4,44.2-114.5,66.2-1.6.9-3.6.9-5.2,0l-114.7-66.2c-3.7-2.1-5-5.2-3.8-9.3,0-.3.2-.7.3-1.2,1.2-4.2,3.7-5.2,7.4-3l109.7,63.5c2.2,1.3,4.9,1.3,7.2,0h0Z"/>
    <path class="st0" d="M301.5,299.2c-4.9,2.2-8.2,5.6-9.9,10.3-.3.7-.3,1.4-.1,2.1,3.4,12.9,16.1,19,26.6,25.3,2.4,1.4,2.9,3.4,1.4,5.8l-.7,1.2c-1.5,2.3-3.4,2.8-5.8,1.4-16.6-9.8-33.1-19.5-49.4-29.2-3.2-1.9-6.3-3.4-9.5-4.5-.9-.3-1-1.6-.2-2.1l47.2-28c1.7-1,3.8-1,5.4,0l32.8,20.9c2.1,1.3,2.4,3,.9,5l-1.5,2c-1.4,1.9-3.1,2.1-5,.6-13.6-10.8-24.3-14.4-32.1-10.9h0Z"/>
    <path class="st0" d="M206.1,306.2c-9.5-17.2-29.8-4.5-40,3.7-2.5,2-4.5,1.6-6-1.3l-.4-.8c-1.4-2.9-.8-5.2,1.9-6.9l29.8-18.6c2.4-1.6,5.6-1.6,8.1-.1l44.8,26.3c1.4.8,1.2,2.8-.2,3.5-2.1.9-4.2,2-6.1,3.1-17.6,10.3-35,20.5-52.2,30.6-1.2.7-2.8.4-3.6-.8l-2.3-3.3c-.9-1.2-.8-2.4.3-3.5,1.3-1.3,2.7-2.4,4.3-3.3,8.4-4.7,28.5-16,21.5-28.6h0Z"/>
  </g>
</svg>